<svg width="171" height="23" viewBox="0 0 171 23" fill="none" xmlns="http://www.w3.org/2000/svg">
<path d="M2.22727 0.545454V18H0.113636V0.545454H2.22727ZM8.20384 10.125V18H6.19247V4.90909H8.13565V6.95455H8.30611C8.61293 6.28977 9.07884 5.75568 9.70384 5.35227C10.3288 4.94318 11.1357 4.73864 12.1243 4.73864C13.0107 4.73864 13.7862 4.92045 14.451 5.28409C15.1158 5.64205 15.6328 6.1875 16.0021 6.92045C16.3714 7.64773 16.5561 8.56818 16.5561 9.68182V18H14.5447V9.81818C14.5447 8.78977 14.2777 7.98864 13.7436 7.41477C13.2095 6.83523 12.4766 6.54545 11.5447 6.54545C10.9027 6.54545 10.3288 6.68466 9.82315 6.96307C9.32315 7.24148 8.92827 7.64773 8.63849 8.18182C8.34872 8.71591 8.20384 9.36364 8.20384 10.125ZM30.4673 4.90909L25.6264 18H23.581L18.7401 4.90909H20.9219L24.5355 15.3409H24.6719L28.2855 4.90909H30.4673ZM38.142 18.2727C36.8807 18.2727 35.7926 17.9943 34.8778 17.4375C33.9688 16.875 33.267 16.0909 32.7727 15.0852C32.2841 14.0739 32.0398 12.8977 32.0398 11.5568C32.0398 10.2159 32.2841 9.03409 32.7727 8.01136C33.267 6.98295 33.9545 6.18182 34.8352 5.60795C35.7216 5.02841 36.7557 4.73864 37.9375 4.73864C38.6193 4.73864 39.2926 4.85227 39.9574 5.07954C40.6222 5.30682 41.2273 5.67614 41.7727 6.1875C42.3182 6.69318 42.7528 7.36364 43.0767 8.19886C43.4006 9.03409 43.5625 10.0625 43.5625 11.2841V12.1364H33.4716V10.3977H41.517C41.517 9.65909 41.3693 9 41.0739 8.42045C40.7841 7.84091 40.3693 7.38352 39.8295 7.0483C39.2955 6.71307 38.6648 6.54545 37.9375 6.54545C37.1364 6.54545 36.4432 6.74432 35.858 7.14205C35.2784 7.53409 34.8324 8.04545 34.5199 8.67614C34.2074 9.30682 34.0511 9.98295 34.0511 10.7045V11.8636C34.0511 12.8523 34.2216 13.6903 34.5625 14.3778C34.9091 15.0597 35.3892 15.5795 36.0028 15.9375C36.6165 16.2898 37.3295 16.4659 38.142 16.4659C38.6705 16.4659 39.1477 16.392 39.5739 16.2443C40.0057 16.0909 40.3778 15.8636 40.6903 15.5625C41.0028 15.2557 41.2443 14.875 41.4148 14.4205L43.358 14.9659C43.1534 15.625 42.8097 16.2045 42.3267 16.7045C41.8438 17.1989 41.2472 17.5852 40.5369 17.8636C39.8267 18.1364 39.0284 18.2727 38.142 18.2727ZM55.8949 7.84091L54.0881 8.35227C53.9744 8.05114 53.8068 7.75852 53.5852 7.47443C53.3693 7.18466 53.0739 6.94602 52.6989 6.75852C52.3239 6.57102 51.8438 6.47727 51.2585 6.47727C50.4574 6.47727 49.7898 6.66193 49.2557 7.03125C48.7273 7.39489 48.4631 7.85795 48.4631 8.42045C48.4631 8.92045 48.6449 9.31534 49.0085 9.60511C49.3722 9.89489 49.9403 10.1364 50.7131 10.3295L52.6562 10.8068C53.8267 11.0909 54.6989 11.5256 55.2727 12.1108C55.8466 12.6903 56.1335 13.4375 56.1335 14.3523C56.1335 15.1023 55.9176 15.7727 55.4858 16.3636C55.0597 16.9545 54.4631 17.4205 53.696 17.7614C52.929 18.1023 52.0369 18.2727 51.0199 18.2727C49.6847 18.2727 48.5795 17.983 47.7045 17.4034C46.8295 16.8239 46.2756 15.9773 46.0426 14.8636L47.9517 14.3864C48.1335 15.0909 48.4773 15.6193 48.983 15.9716C49.4943 16.3239 50.1619 16.5 50.9858 16.5C51.9233 16.5 52.6676 16.3011 53.2188 15.9034C53.7756 15.5 54.054 15.017 54.054 14.4545C54.054 14 53.8949 13.6193 53.5767 13.3125C53.2585 13 52.7699 12.767 52.1108 12.6136L49.929 12.1023C48.7301 11.8182 47.8494 11.3778 47.2869 10.7812C46.7301 10.179 46.4517 9.42614 46.4517 8.52273C46.4517 7.78409 46.6591 7.13068 47.0739 6.5625C47.4943 5.99432 48.0653 5.5483 48.7869 5.22443C49.5142 4.90057 50.3381 4.73864 51.2585 4.73864C52.554 4.73864 53.571 5.02273 54.3097 5.59091C55.054 6.15909 55.5824 6.90909 55.8949 7.84091ZM64.8544 4.90909V6.61364H58.0703V4.90909H64.8544ZM60.0476 1.77273H62.0589V14.25C62.0589 14.8182 62.1413 15.2443 62.3061 15.5284C62.4766 15.8068 62.6925 15.9943 62.9538 16.0909C63.2209 16.1818 63.5021 16.2273 63.7976 16.2273C64.0192 16.2273 64.201 16.2159 64.343 16.1932C64.4851 16.1648 64.5987 16.142 64.6839 16.125L65.093 17.9318C64.9567 17.983 64.7663 18.0341 64.522 18.0852C64.2777 18.142 63.968 18.1705 63.593 18.1705C63.0249 18.1705 62.468 18.0483 61.9226 17.804C61.3828 17.5597 60.9339 17.1875 60.576 16.6875C60.2237 16.1875 60.0476 15.5568 60.0476 14.7955V1.77273Z" fill="white"/>
<path d="M68.8686 18H66.6527L73.0618 0.545454H75.2436L81.6527 18H79.4368L74.2209 3.30682H74.0845L68.8686 18ZM69.6868 11.1818H78.6186V13.0568H69.6868V11.1818ZM89.4169 18.2727C88.1896 18.2727 87.1328 17.983 86.2464 17.4034C85.3601 16.8239 84.6783 16.0256 84.201 15.0085C83.7237 13.9915 83.4851 12.8295 83.4851 11.5227C83.4851 10.1932 83.7294 9.01989 84.218 8.00284C84.7124 6.98011 85.3999 6.18182 86.2805 5.60795C87.1669 5.02841 88.201 4.73864 89.3828 4.73864C90.3033 4.73864 91.1328 4.90909 91.8714 5.25C92.6101 5.59091 93.2152 6.06818 93.6868 6.68182C94.1584 7.29545 94.451 8.01136 94.5646 8.82955H92.5533C92.3999 8.23295 92.0589 7.70455 91.5305 7.24432C91.0078 6.77841 90.3033 6.54545 89.4169 6.54545C88.6328 6.54545 87.9453 6.75 87.3544 7.15909C86.7692 7.5625 86.3118 8.13352 85.9822 8.87216C85.6584 9.60511 85.4964 10.4659 85.4964 11.4545C85.4964 12.4659 85.6555 13.3466 85.9737 14.0966C86.2976 14.8466 86.7521 15.429 87.3374 15.8438C87.9283 16.2585 88.6214 16.4659 89.4169 16.4659C89.9396 16.4659 90.4141 16.375 90.8402 16.1932C91.2663 16.0114 91.6271 15.75 91.9226 15.4091C92.218 15.0682 92.4283 14.6591 92.5533 14.1818H94.5646C94.451 14.9545 94.1697 15.6506 93.7209 16.2699C93.2777 16.8835 92.6896 17.3722 91.9567 17.7358C91.2294 18.0938 90.3828 18.2727 89.4169 18.2727ZM101.357 18.3068C100.528 18.3068 99.7749 18.1506 99.0987 17.8381C98.4226 17.5199 97.8857 17.0625 97.4879 16.4659C97.0902 15.8636 96.8913 15.1364 96.8913 14.2841C96.8913 13.5341 97.0391 12.9261 97.3345 12.4602C97.63 11.9886 98.0249 11.6193 98.5192 11.3523C99.0135 11.0852 99.5589 10.8864 100.156 10.7557C100.758 10.6193 101.363 10.5114 101.971 10.4318C102.766 10.3295 103.411 10.2528 103.906 10.2017C104.406 10.1449 104.769 10.0511 104.996 9.92045C105.229 9.78977 105.346 9.5625 105.346 9.23864V9.17045C105.346 8.32955 105.116 7.67614 104.656 7.21023C104.201 6.74432 103.511 6.51136 102.585 6.51136C101.624 6.51136 100.871 6.72159 100.326 7.14205C99.7805 7.5625 99.397 8.01136 99.1754 8.48864L97.2663 7.80682C97.6072 7.01136 98.0618 6.39205 98.63 5.94886C99.2038 5.5 99.8288 5.1875 100.505 5.01136C101.187 4.82955 101.857 4.73864 102.516 4.73864C102.937 4.73864 103.42 4.78977 103.965 4.89204C104.516 4.98864 105.048 5.19034 105.559 5.49716C106.076 5.80398 106.505 6.26705 106.846 6.88636C107.187 7.50568 107.357 8.33523 107.357 9.375V18H105.346V16.2273H105.244C105.107 16.5114 104.88 16.8153 104.562 17.1392C104.244 17.4631 103.82 17.7386 103.292 17.9659C102.763 18.1932 102.119 18.3068 101.357 18.3068ZM101.664 16.5C102.46 16.5 103.13 16.3438 103.675 16.0312C104.227 15.7188 104.641 15.3153 104.92 14.821C105.204 14.3267 105.346 13.8068 105.346 13.2614V11.4205C105.261 11.5227 105.073 11.6165 104.783 11.7017C104.499 11.7812 104.17 11.8523 103.795 11.9148C103.425 11.9716 103.065 12.0227 102.712 12.0682C102.366 12.108 102.085 12.142 101.869 12.1705C101.346 12.2386 100.857 12.3494 100.403 12.5028C99.9538 12.6506 99.5902 12.875 99.3118 13.1761C99.0391 13.4716 98.9027 13.875 98.9027 14.3864C98.9027 15.0852 99.1612 15.6136 99.6783 15.9716C100.201 16.3239 100.863 16.5 101.664 16.5ZM115.972 18.2727C114.881 18.2727 113.918 17.9972 113.082 17.446C112.247 16.8892 111.594 16.1051 111.122 15.0938C110.651 14.0767 110.415 12.875 110.415 11.4886C110.415 10.1136 110.651 8.92045 111.122 7.90909C111.594 6.89773 112.25 6.11648 113.091 5.56534C113.932 5.0142 114.903 4.73864 116.006 4.73864C116.858 4.73864 117.531 4.88068 118.026 5.16477C118.526 5.44318 118.906 5.76136 119.168 6.11932C119.435 6.47159 119.642 6.76136 119.79 6.98864H119.96V0.545454H121.972V18H120.028V15.9886H119.79C119.642 16.2273 119.432 16.5284 119.159 16.892C118.886 17.25 118.497 17.571 117.991 17.8551C117.486 18.1335 116.813 18.2727 115.972 18.2727ZM116.244 16.4659C117.051 16.4659 117.733 16.2557 118.29 15.8352C118.847 15.4091 119.27 14.821 119.56 14.071C119.849 13.3153 119.994 12.4432 119.994 11.4545C119.994 10.4773 119.852 9.62216 119.568 8.8892C119.284 8.15057 118.864 7.5767 118.307 7.16761C117.75 6.75284 117.063 6.54545 116.244 6.54545C115.392 6.54545 114.682 6.7642 114.114 7.2017C113.551 7.63352 113.128 8.22159 112.844 8.96591C112.565 9.70455 112.426 10.5341 112.426 11.4545C112.426 12.3864 112.568 13.233 112.852 13.9943C113.142 14.75 113.568 15.3523 114.131 15.8011C114.699 16.2443 115.403 16.4659 116.244 16.4659ZM131.423 18.2727C130.162 18.2727 129.074 17.9943 128.159 17.4375C127.25 16.875 126.548 16.0909 126.054 15.0852C125.565 14.0739 125.321 12.8977 125.321 11.5568C125.321 10.2159 125.565 9.03409 126.054 8.01136C126.548 6.98295 127.236 6.18182 128.116 5.60795C129.003 5.02841 130.037 4.73864 131.219 4.73864C131.901 4.73864 132.574 4.85227 133.239 5.07954C133.903 5.30682 134.509 5.67614 135.054 6.1875C135.599 6.69318 136.034 7.36364 136.358 8.19886C136.682 9.03409 136.844 10.0625 136.844 11.2841V12.1364H126.753V10.3977H134.798C134.798 9.65909 134.651 9 134.355 8.42045C134.065 7.84091 133.651 7.38352 133.111 7.0483C132.577 6.71307 131.946 6.54545 131.219 6.54545C130.418 6.54545 129.724 6.74432 129.139 7.14205C128.56 7.53409 128.114 8.04545 127.801 8.67614C127.489 9.30682 127.332 9.98295 127.332 10.7045V11.8636C127.332 12.8523 127.503 13.6903 127.844 14.3778C128.19 15.0597 128.67 15.5795 129.284 15.9375C129.898 16.2898 130.611 16.4659 131.423 16.4659C131.952 16.4659 132.429 16.392 132.855 16.2443C133.287 16.0909 133.659 15.8636 133.972 15.5625C134.284 15.2557 134.526 14.875 134.696 14.4205L136.639 14.9659C136.435 15.625 136.091 16.2045 135.608 16.7045C135.125 17.1989 134.528 17.5852 133.818 17.8636C133.108 18.1364 132.31 18.2727 131.423 18.2727ZM139.903 18V4.90909H141.847V6.95455H142.017C142.29 6.25568 142.73 5.71307 143.338 5.3267C143.946 4.93466 144.676 4.73864 145.528 4.73864C146.392 4.73864 147.111 4.93466 147.685 5.3267C148.264 5.71307 148.716 6.25568 149.04 6.95455H149.176C149.511 6.27841 150.014 5.74148 150.685 5.34375C151.355 4.94034 152.159 4.73864 153.097 4.73864C154.267 4.73864 155.224 5.10511 155.969 5.83807C156.713 6.56534 157.085 7.69886 157.085 9.23864V18H155.074V9.23864C155.074 8.27273 154.81 7.58239 154.281 7.16761C153.753 6.75284 153.131 6.54545 152.415 6.54545C151.494 6.54545 150.781 6.82386 150.276 7.38068C149.77 7.93182 149.517 8.63068 149.517 9.47727V18H147.472V9.03409C147.472 8.28977 147.23 7.69034 146.747 7.2358C146.264 6.77557 145.642 6.54545 144.881 6.54545C144.358 6.54545 143.869 6.68466 143.415 6.96307C142.966 7.24148 142.602 7.62784 142.324 8.12216C142.051 8.6108 141.915 9.17614 141.915 9.81818V18H139.903ZM161.589 22.9091C161.249 22.9091 160.945 22.8807 160.678 22.8239C160.411 22.7727 160.226 22.7216 160.124 22.6705L160.635 20.8977C161.124 21.0227 161.555 21.0682 161.93 21.0341C162.305 21 162.638 20.8324 162.928 20.5312C163.223 20.2358 163.493 19.7557 163.737 19.0909L164.112 18.0682L159.271 4.90909H161.453L165.067 15.3409H165.203L168.817 4.90909H170.999L165.442 19.9091C165.192 20.5852 164.882 21.1449 164.513 21.5881C164.143 22.0369 163.714 22.3693 163.226 22.5852C162.743 22.8011 162.197 22.9091 161.589 22.9091Z" fill="#0038FF"/>
</svg>
